<svg width="23" height="23" viewBox="0 0 23 23" fill="none" xmlns="http://www.w3.org/2000/svg">
<path d="M4.58887 11.1879C4.58887 10.9258 4.693 10.6744 4.87835 10.489C5.06371 10.3037 5.3151 10.1995 5.57723 10.1995H10.1804V5.5964C10.1804 5.33427 10.2845 5.08287 10.4699 4.89752C10.6552 4.71216 10.9066 4.60803 11.1687 4.60803C11.4309 4.60803 11.6823 4.71216 11.8676 4.89752C12.053 5.08287 12.1571 5.33427 12.1571 5.5964V10.1995H16.7602C17.0224 10.1995 17.2738 10.3037 17.4591 10.489C17.6445 10.6744 17.7486 10.9258 17.7486 11.1879C17.7486 11.45 17.6445 11.7014 17.4591 11.8868C17.2738 12.0721 17.0224 12.1763 16.7602 12.1763H12.1571V16.7794C12.1571 17.0415 12.053 17.2929 11.8676 17.4783C11.6823 17.6636 11.4309 17.7678 11.1687 17.7678C10.9066 17.7678 10.6552 17.6636 10.4699 17.4783C10.2845 17.2929 10.1804 17.0415 10.1804 16.7794V12.1763H5.57723C5.3151 12.1763 5.06371 12.0721 4.87835 11.8868C4.693 11.7014 4.58887 11.45 4.58887 11.1879Z" fill="white"/>
<path fill-rule="evenodd" clip-rule="evenodd" d="M4.99838 0.341027C9.10004 -0.113676 13.2394 -0.113676 17.3411 0.341027C19.7487 0.609862 21.6925 2.5062 21.9745 4.92703C22.4621 9.08739 22.4621 13.2899 21.9745 17.4503C21.6912 19.8711 19.7474 21.7661 17.3411 22.0363C13.2394 22.491 9.10004 22.491 4.99838 22.0363C2.59072 21.7661 0.646939 19.8711 0.364926 17.4503C-0.121642 13.29 -0.121642 9.08727 0.364926 4.92703C0.646939 2.5062 2.59204 0.609862 4.99838 0.341027ZM17.1223 2.30458C13.166 1.86605 9.17341 1.86605 5.21713 2.30458C4.48475 2.38583 3.80114 2.71162 3.27675 3.22931C2.75236 3.74701 2.41781 4.42637 2.32716 5.15765C1.85847 9.1651 1.85847 13.2135 2.32716 17.221C2.41809 17.952 2.75276 18.6311 3.27712 19.1485C3.80149 19.6659 4.48494 19.9915 5.21713 20.0727C9.14028 20.5102 13.1992 20.5102 17.1223 20.0727C17.8543 19.9913 18.5374 19.6655 19.0615 19.1481C19.5856 18.6307 19.9201 17.9518 20.011 17.221C20.4797 13.2135 20.4797 9.1651 20.011 5.15765C19.9198 4.42705 19.5852 3.74844 19.0611 3.2313C18.5371 2.71415 17.8541 2.38862 17.1223 2.30721V2.30458Z" fill="white" fill-opacity="0.85"/>
</svg>
