<svg width="21" height="21" viewBox="0 0 21 21" fill="none" xmlns="http://www.w3.org/2000/svg">
<path d="M9.29737 20.0221C8.22293 19.9385 7.2404 19.7266 6.56118 19.0468C5.86804 18.3539 5.65316 17.3443 5.66193 16.0994C5.66498 15.6674 5.72566 15.1448 5.78907 14.6622C5.81648 14.4624 5.84283 14.2706 5.8691 14.0908L5.92812 13.6622L3.87817 13.6477C3.12619 13.6424 2.43297 13.5295 1.84507 13.2294C1.23524 12.9191 0.788646 12.4349 0.500194 11.7889C-0.0422344 10.571 -0.0205862 8.77713 0.315227 6.39344L0.368976 6.00381C0.510094 4.99478 0.630167 4.13361 0.783155 3.42667C0.954756 2.63286 1.18769 1.93348 1.61359 1.38247C2.5118 0.220774 4.0182 0.0273884 6.20615 0.0428138C8.53709 0.0592473 10.2831 0.489567 11.7442 0.905878L12.345 1.08012C13.3659 1.37732 14.1932 1.61916 15.0308 1.68507C15.0761 1.25269 15.2807 0.85264 15.6047 0.562845C15.9288 0.27305 16.3491 0.114255 16.7839 0.117389L18.2838 0.127964C18.748 0.131236 19.1918 0.318745 19.5176 0.649238C19.8435 0.979732 20.0247 1.42614 20.0215 1.89026L19.9474 12.39C19.9406 13.356 19.1511 14.1344 18.1851 14.1276L16.6852 14.117C16.2413 14.1139 15.8153 13.9422 15.4932 13.6367C15.1712 13.3313 14.9773 12.9148 14.9507 12.4718C14.7708 12.4884 14.5943 12.5313 14.4268 12.5991C13.4629 13.0073 11.6421 14.1135 11.6233 16.7794L11.6159 17.8324C11.6073 19.0524 10.5977 20.1233 9.29737 20.0221ZM15.0122 3.18698C13.9537 3.11551 12.9358 2.81733 11.8989 2.51301L11.332 2.34901C9.9288 1.94911 8.33152 1.55784 6.19557 1.54278C3.91863 1.52672 3.18971 1.79559 2.80015 2.29986C2.58216 2.58133 2.4071 3.0151 2.24995 3.74401C2.10938 4.39304 1.99774 5.19227 1.8535 6.21828L1.80079 6.60192C1.46388 8.9996 1.52105 10.395 1.87054 11.1775C2.02805 11.5306 2.24153 11.7482 2.52551 11.8932C2.82942 12.0483 3.26376 12.1434 3.88875 12.1478L6.25869 12.1645C6.93967 12.1693 7.54764 12.7436 7.4603 13.501C7.43258 13.7438 7.39151 14.0375 7.34942 14.3342L7.27571 14.8607C7.21231 15.3423 7.16422 15.781 7.1619 16.11C7.15396 17.2349 7.36349 17.7284 7.62168 17.9862C7.89477 18.2582 8.39245 18.4467 9.41291 18.5269C9.76373 18.5534 10.1128 18.2578 10.1159 17.8218L10.1233 16.7688C10.1484 13.2189 12.647 11.7235 13.8426 11.2179C14.2157 11.0606 14.5982 10.9912 14.9574 10.9658L15.0122 3.18698ZM18.2733 1.62793L16.7733 1.61735C16.707 1.61688 16.6432 1.64277 16.596 1.68933C16.5488 1.73588 16.522 1.79928 16.5216 1.86558L16.4475 12.3653C16.4471 12.4316 16.4729 12.4954 16.5195 12.5426C16.5661 12.5898 16.6295 12.6166 16.6958 12.6171L18.1957 12.6277C18.262 12.6281 18.3258 12.6022 18.373 12.5557C18.4202 12.5091 18.447 12.4457 18.4475 12.3794L18.5215 1.87968C18.5225 1.74169 18.4113 1.6289 18.2733 1.62793Z" fill="#D40707"/>
</svg>
