<svg width="45" height="45" viewBox="0 0 45 45" fill="none" xmlns="http://www.w3.org/2000/svg">
<circle cx="22.5" cy="22.5" r="22.5" fill="black"/>
<path d="M13.9558 16.4961L33.1246 15.1087C33.3183 15.0946 33.512 15.1357 33.6834 15.2272C33.8547 15.3188 33.9967 15.457 34.0929 15.626C34.1891 15.795 34.2356 15.9878 34.2269 16.1822C34.2183 16.3766 34.1549 16.5645 34.0442 16.7243L23.0901 32.5442C22.9779 32.7065 22.8215 32.833 22.6395 32.9088C22.4576 32.9846 22.2577 33.0064 22.0637 32.9717C21.8697 32.937 21.6897 32.8471 21.5452 32.7129C21.4007 32.5787 21.2978 32.4056 21.2486 32.2145L19.6055 25.8196C19.5853 25.7412 19.5886 25.6586 19.615 25.5821C19.6414 25.5057 19.6896 25.4386 19.7538 25.3894L26.4868 20.2271C26.5149 20.2053 26.5368 20.1767 26.5505 20.1439C26.5642 20.1111 26.5692 20.0753 26.5651 20.04L26.5527 19.9883C26.5356 19.9451 26.5044 19.909 26.4642 19.8858C26.424 19.8626 26.3771 19.8537 26.3312 19.8605L26.2858 19.8722L18.4292 23.044C18.3543 23.074 18.2723 23.0813 18.1933 23.065C18.1143 23.0488 18.0418 23.0096 17.9849 22.9524L13.3016 18.2524C13.1622 18.1127 13.0658 17.9358 13.0239 17.7428C12.982 17.5497 12.9964 17.3487 13.0653 17.1636C13.1343 16.9786 13.2549 16.8172 13.4127 16.6989C13.5706 16.5805 13.7591 16.5101 13.9558 16.4961Z" fill="white"/>
</svg>
