<svg width="28" height="28" viewBox="0 0 28 28" fill="none" xmlns="http://www.w3.org/2000/svg">
<path d="M6.53333 23.24L8.31133 21.8178L8.323 21.8085C8.694 21.511 8.88183 21.3616 9.09067 21.2555C9.27733 21.1598 9.47683 21.0898 9.68333 21.0478C9.9155 21 10.157 21 10.6423 21H20.7702C22.0745 21 22.7278 21 23.226 20.7456C23.665 20.5219 24.022 20.165 24.2457 19.726C24.5 19.2266 24.5 18.5733 24.5 17.2713V8.39646C24.5 7.09213 24.5 6.43879 24.2457 5.94063C24.0216 5.50147 23.6642 5.14453 23.2248 4.92096C22.7267 4.66663 22.0733 4.66663 20.7667 4.66663H7.23333C5.92667 4.66663 5.27333 4.66663 4.774 4.92096C4.33493 5.14459 3.97797 5.50155 3.75433 5.94063C3.5 6.43996 3.5 7.09329 3.5 8.39996V21.7828C3.5 23.0265 3.5 23.6483 3.75433 23.9668C3.8637 24.1041 4.00264 24.215 4.16081 24.2911C4.31897 24.3673 4.49229 24.4068 4.66783 24.4066C5.07617 24.4066 5.5615 24.017 6.53333 23.24Z" stroke="#4171FC" stroke-width="2" stroke-linecap="round" stroke-linejoin="round"/>
</svg>
