<svg width="20" height="20" viewBox="0 0 20 20" fill="none" xmlns="http://www.w3.org/2000/svg">
<path d="M10.596 0.00548979C11.671 0.0814898 12.655 0.28649 13.339 0.96149C14.037 1.64949 14.259 2.65749 14.259 3.90249C14.259 4.33449 14.202 4.85749 14.142 5.34049C14.116 5.54049 14.091 5.73249 14.066 5.91249L14.01 6.34149H16.06C16.812 6.34149 17.506 6.44949 18.096 6.74549C18.708 7.05149 19.158 7.53249 19.451 8.17649C20.002 9.39049 19.993 11.1845 19.674 13.5705L19.623 13.9605C19.489 14.9705 19.375 15.8325 19.227 16.5405C19.061 17.3355 18.833 18.0365 18.411 18.5905C17.521 19.7585 16.016 19.9625 13.828 19.9625C11.497 19.9625 9.748 19.5445 8.284 19.1385L7.682 18.9685C6.659 18.6785 5.83 18.4425 4.992 18.3825C4.94977 18.8152 4.74799 19.2167 4.42597 19.5087C4.10395 19.8008 3.68475 19.9626 3.25 19.9625H1.75C1.28587 19.9625 0.840752 19.7781 0.512563 19.4499C0.184375 19.1217 0 18.6766 0 18.2125V7.71249C0 6.74649 0.784 5.96249 1.75 5.96249H3.25C3.69386 5.96251 4.12113 6.13119 4.4453 6.43438C4.76947 6.73758 4.96632 7.15262 4.996 7.59549C5.1758 7.5776 5.352 7.53346 5.519 7.46449C6.48 7.04949 8.293 5.93049 8.293 3.26449V2.21149C8.293 0.99149 9.295 -0.0865102 10.596 0.00548979ZM5 16.8805C6.059 16.9445 7.079 17.2355 8.118 17.5325L8.686 17.6925C10.092 18.0825 11.692 18.4625 13.828 18.4625C16.105 18.4625 16.832 18.1885 17.218 17.6815C17.434 17.3985 17.606 16.9635 17.758 16.2335C17.894 15.5835 18 14.7835 18.137 13.7565L18.187 13.3725C18.507 10.9725 18.44 9.57749 18.085 8.79749C17.925 8.44549 17.71 8.22949 17.425 8.08649C17.12 7.93349 16.685 7.84149 16.06 7.84149H13.69C13.009 7.84149 12.397 7.27149 12.479 6.51349C12.505 6.27049 12.544 5.97649 12.584 5.67949L12.654 5.15249C12.714 4.67049 12.759 4.23149 12.759 3.90249C12.759 2.77749 12.546 2.28549 12.286 2.02949C12.011 1.75949 11.512 1.57449 10.491 1.50149C10.14 1.47749 9.793 1.77549 9.793 2.21149V3.26449C9.793 6.81449 7.305 8.32749 6.113 8.84149C5.741 9.00149 5.359 9.07349 5 9.10149V16.8805ZM1.75 18.4625H3.25C3.3163 18.4625 3.37989 18.4362 3.42678 18.3893C3.47366 18.3424 3.5 18.2788 3.5 18.2125V7.71249C3.5 7.64619 3.47366 7.5826 3.42678 7.53571C3.37989 7.48883 3.3163 7.46249 3.25 7.46249H1.75C1.6837 7.46249 1.62011 7.48883 1.57322 7.53571C1.52634 7.5826 1.5 7.64619 1.5 7.71249V18.2125C1.5 18.3505 1.612 18.4625 1.75 18.4625Z" fill="#6EE311"/>
</svg>
